<svg width="80" height="56" viewBox="0 0 80 56" fill="none" xmlns="http://www.w3.org/2000/svg">
<g clip-path="url(#clip0_27_1003)">
<path fill-rule="evenodd" clip-rule="evenodd" d="M2.0833 17.2848C0.0118368 22.4012 -0.530154 28.031 0.525946 33.4626C1.58192 38.894 4.18856 43.8832 8.01604 47.799C11.8435 51.7148 16.7202 54.3816 22.029 55.462C27.3382 56.5424 32.841 55.9878 37.842 53.8686C42.8428 51.7494 47.1172 48.1604 50.1244 43.556C50.2046 43.4332 50.2838 43.3098 50.362 43.1858C50.4172 43.0984 50.472 43.0104 50.5264 42.9222V56H52.6316C58.0446 56 63.336 54.3578 67.8366 51.281C72.3374 48.2046 75.8452 43.8314 77.9166 38.715C79.9882 33.5988 80.5302 27.969 79.474 22.5374C78.418 17.106 75.8116 12.1168 71.984 8.20104C68.1564 4.2851 63.2798 1.61842 57.971 0.538083C52.6618 -0.542389 47.159 0.0121109 42.158 2.13138C37.1572 4.25066 32.8828 7.83952 29.8756 12.444C29.7388 12.6536 29.6048 12.865 29.4736 13.0778V1.66951e-05H27.3684C21.9554 1.66951e-05 16.664 1.64222 12.1634 4.71892C7.66268 7.79548 4.15478 12.1685 2.0833 17.2848ZM25.2632 28V4.40578C21.426 4.76414 17.7249 6.09794 14.5026 8.30054C10.6943 10.9039 7.72616 14.6042 5.97336 18.9333C4.22056 23.2626 3.76196 28.0262 4.65552 32.6222C5.54908 37.218 7.7547 41.4396 10.9933 44.753C14.232 48.0664 18.3584 50.3228 22.8506 51.237C27.3428 52.1512 31.999 51.682 36.2306 49.8888C40.2922 48.1676 43.7874 45.3008 46.3118 41.628C44.3986 42.5572 42.2586 43.077 40 43.077C31.8612 43.077 25.2632 36.3266 25.2632 28ZM54.7368 51.5942V28C54.7368 19.6733 48.1388 12.9231 40 12.9231C37.7414 12.9231 35.6014 13.4429 33.6882 14.372C36.2126 10.6992 39.7078 7.83228 43.7694 6.1112C48.001 4.31796 52.6572 3.84878 57.1494 4.76296C61.6416 5.67712 65.768 7.93364 69.0068 11.247C72.2454 14.5604 74.451 18.782 75.3444 23.3778C76.238 27.9738 75.7794 32.7374 74.0266 37.0666C72.274 41.3958 69.3058 45.0962 65.4974 47.6994C62.2752 49.902 58.574 51.2358 54.7368 51.5942ZM39.7894 38.7672C34.143 38.6538 29.5866 33.992 29.4758 28.2154H33.4582C36.5998 28.948 39.073 31.478 39.7894 34.6922V38.7672ZM40.2104 38.7672C45.8568 38.6538 50.4134 33.992 50.5242 28.2154H46.5418C43.3998 28.948 40.9266 31.4784 40.2104 34.693V38.7672ZM50.5242 27.7846C50.4134 22.008 45.8568 17.3462 40.2104 17.2329V21.307C40.9266 24.5214 43.3996 27.0518 46.5412 27.7846H50.5242ZM39.7894 17.2329C34.1432 17.3462 29.5866 22.008 29.4758 27.7846H33.4588C36.6002 27.0518 39.0732 24.5218 39.7894 21.3078V17.2329Z" fill="#FDBF62"/>
</g>
<defs>
<clipPath id="clip0_27_1003">
<rect width="80" height="56" fill="white"/>
</clipPath>
</defs>
</svg>
