<svg width="22" height="20" viewBox="0 0 22 20" fill="none" xmlns="http://www.w3.org/2000/svg">
<g clip-path="url(#clip0_23_919)">
<path d="M8.76896 7.55935C8.76896 7.55935 9.21697 2.79254 9.11583 1.05167C9.06396 0.158744 8.73395 -0.0432677 8.22953 0.00765967C7.72511 0.0585871 4.84058 2.06598 4.84058 2.06598L5.25163 3.36462L7.65055 2.37663C7.65055 2.37663 7.40612 4.23124 7.34971 4.58349C7.2933 4.93574 7.1753 5.41021 7.08129 5.83545C7.03526 6.0451 6.97107 6.31672 6.97107 6.44828C6.97237 6.75894 8.76896 7.55935 8.76896 7.55935Z" fill="#FFEDE5"/>
<path d="M7.65054 2.37668C7.98509 2.2918 8.319 2.03292 8.42403 1.82666C8.37009 2.05859 8.25101 2.25513 8.09078 2.37668C7.93827 2.50541 7.77675 2.61483 7.6084 2.70346L7.65054 2.37668Z" fill="#F28F8F"/>
<path d="M13.31 7.47441C13.2601 7.23165 12.9346 6.97617 11.9647 6.76312C10.9947 6.55007 10.1123 6.76312 10.1071 6.91336C10.1019 7.06359 10.3464 8.06771 11.4648 8.25105C12.5832 8.43439 13.4125 8.00745 13.31 7.47441Z" fill="#263238"/>
<path d="M10.3925 9.53797C10.3925 9.53797 9.76031 4.17022 9.85108 3.07443C9.94509 1.94214 10.2732 1.41674 10.8236 1.3429C11.5426 1.88952 11.9258 3.19581 12.3855 4.48342C12.8452 5.77104 13.3431 8.533 13.3697 9.85287C13.3963 11.1727 12.5988 12.1132 11.6956 12.2847C10.7925 12.4561 10.3925 9.53797 10.3925 9.53797Z" fill="#FFEDE5"/>
<path d="M11.3857 5.33556C11.094 5.02857 10.8969 4.59387 10.8307 4.11161L11.7351 3.6991L12.3453 4.3637L12.3634 4.41548C12.3712 4.43754 12.379 4.45961 12.3874 4.48168C12.4049 4.53091 12.4224 4.58269 12.4399 4.63531C12.4444 4.65059 12.4496 4.66587 12.4548 4.682C12.4684 4.72274 12.4814 4.76687 12.495 4.80931L12.5086 4.85345C12.5268 4.91202 12.5443 4.97228 12.5624 5.03424C12.58 5.0962 12.5975 5.15986 12.615 5.22437C12.6189 5.2388 12.6227 5.25238 12.626 5.26596L12.6727 5.44421C12.6727 5.4527 12.6772 5.46203 12.6798 5.47052C12.7161 5.61482 12.7524 5.7642 12.7874 5.91698L12.7933 5.9416C12.8108 6.01714 12.8276 6.09353 12.8445 6.17077C12.8445 6.17077 12.0042 6.0129 11.3857 5.33556Z" fill="#F28F8F"/>
<path d="M10.6329 1.38878C10.9766 1.21138 11.3947 1.62644 11.6158 1.81318C12.0651 2.19004 14.8122 4.99275 15.4528 5.64971C15.5916 5.76005 15.7329 5.86615 15.8768 5.96631L15.1221 7.51111C15.0602 7.2891 14.9632 7.08666 14.8375 6.91695C14.1529 6.27697 12.8276 5.92811 11.9744 5.49353C11.3105 5.15402 11.1717 4.96389 10.948 4.46734C10.7769 4.07435 10.159 1.68246 10.6329 1.38878Z" fill="#FFEDE5"/>
<path d="M10.3788 9.56762L10.1072 6.91345C10.1072 6.91345 10.351 7.64511 11.6062 7.83778C12.8614 8.03046 13.3418 7.75291 13.3101 7.4745C13.3101 7.4745 13.6381 9.13643 13.511 10.2161C13.384 11.2958 12.1242 12.4459 12.1242 12.4459L10.3788 9.56762Z" fill="#37474F"/>
<path opacity="0.15" d="M10.9345 9.93081C10.8191 9.93081 10.7108 9.94015 10.6104 9.94864L12.0056 12.2463H12.3298C12.6916 11.8703 13.4171 11.0249 13.5117 10.2186C13.6051 9.42663 13.4534 8.3232 13.3659 7.79016C13.4158 8.40299 12.3687 9.89092 10.9345 9.93081Z" fill="black"/>
<path d="M17.2184 3.72024C16.7645 3.6099 16.5538 4.03854 16.3865 4.39248C16.2193 4.74643 15.9392 5.39575 15.8141 5.50525C15.6889 5.61474 15.6195 5.50525 15.4412 5.68095C15.2629 5.85665 15.1326 6.19022 15.1877 6.3116L15.3174 6.60698C15.2426 6.59626 15.167 6.60873 15.0966 6.64338C15.0262 6.67803 14.963 6.73389 14.9122 6.80644C14.7177 7.06108 14.8188 7.10352 14.9284 7.24781C15.038 7.39211 15.2954 8.04398 15.5534 8.22138C15.5534 8.22138 16.2484 7.94892 16.7522 6.91679C17.256 5.88466 17.2184 3.72024 17.2184 3.72024Z" fill="url(#paint0_linear_23_919)"/>
<path d="M15.6967 8.35811C15.6701 8.35192 15.6448 8.33855 15.6224 8.31885C15.6 8.29915 15.5809 8.27356 15.5665 8.2437C15.552 8.21384 15.5425 8.18036 15.5384 8.1454C15.5344 8.11045 15.536 8.07477 15.5431 8.04066C15.6199 7.72238 15.7352 7.42233 15.8847 7.15197C16.0591 6.82774 16.3859 6.21831 16.441 5.88473C16.4961 5.55116 16.6148 4.61664 16.8086 4.22535C17.0025 3.83405 17.2015 3.60828 17.457 3.73475C17.7125 3.86121 16.9059 6.36599 16.6692 6.79039C16.4326 7.21478 15.6967 8.35811 15.6967 8.35811Z" fill="#37474F"/>
<path d="M15.8457 8.30371C16.4844 7.85809 16.6944 7.42521 16.8831 6.86076C17.0718 6.29632 17.5127 5.77601 17.6268 5.26928C17.7409 4.76255 17.7525 3.46306 17.3136 3.77796C16.8747 4.09286 16.7833 5.25485 16.5907 5.92625C16.3981 6.59764 15.2194 8.74253 15.8457 8.30371Z" fill="#263238"/>
<path d="M12.0075 9.67624C12.2993 9.61768 12.8601 9.77555 13.369 10.7058C13.9156 11.7049 14.0174 13.4483 13.6744 13.5917C13.6744 13.5917 12.8795 13.4695 12.3336 13.0952C11.7877 12.7209 10.8703 10.1923 12.0075 9.67624Z" fill="#263238"/>
<path d="M21.3309 17.9944C20.4842 17.559 19.7911 16.8103 19.1914 15.9734C18.709 15.1162 16.642 11.4451 16.2835 10.9282C16.1538 10.7449 15.8465 10.273 15.4205 10.155C13.9125 9.73058 11.12 9.79339 11.12 9.79339L10.0463 9.55658L7.90674 12.1929C8.20174 12.6046 8.57195 12.9636 9.11333 13.3328C9.6547 13.7021 10.2402 13.9703 11.0299 13.8829C12.6106 13.708 13.5585 13.1232 14.4046 12.8643C14.6496 12.7896 14.9038 12.7209 15.0964 13.2471C15.2889 13.7734 15.3045 14.0373 15.8744 14.5967C16.6051 15.3148 17.8117 16.1177 18.3381 16.9733C18.4248 17.183 18.4766 17.4145 18.4898 17.6523C18.5398 18.5546 19.1181 18.3772 19.5843 18.7694C19.8384 18.9832 20.0271 19.243 20.3331 19.3313C20.6118 19.4063 20.8997 19.3993 21.176 19.3109C21.425 19.2336 21.7815 18.9985 21.9041 18.6811C22.0649 18.2584 21.5747 18.1192 21.3309 17.9944Z" fill="#FFEDE5"/>
<path d="M21.3309 17.9944C20.4842 17.559 19.7911 16.8103 19.1914 15.9734C18.709 15.1162 16.642 11.4451 16.2835 10.9282C16.1538 10.7449 15.8465 10.273 15.4205 10.155C13.9125 9.73058 11.12 9.79339 11.12 9.79339L10.0463 9.55658L7.90674 12.1929C8.20174 12.6046 8.57195 12.9636 9.11333 13.3328C9.6547 13.7021 10.2402 13.9703 11.0299 13.8829C12.6106 13.708 13.5585 13.1232 14.4046 12.8643C14.6496 12.7896 14.9038 12.7209 15.0964 13.2471C15.2889 13.7734 15.3045 14.0373 15.8744 14.5967C16.6051 15.3148 17.8117 16.1177 18.3381 16.9733C18.4248 17.183 18.4766 17.4145 18.4898 17.6523C18.5398 18.5546 19.1181 18.3772 19.5843 18.7694C19.8384 18.9832 20.0271 19.243 20.3331 19.3313C20.6118 19.4063 20.8997 19.3993 21.176 19.3109C21.425 19.2336 21.7815 18.9985 21.9041 18.6811C22.0649 18.2584 21.5747 18.1192 21.3309 17.9944Z" fill="#FFEDE5"/>
<path d="M15.8258 14.1689C15.6652 13.936 15.5434 13.662 15.4679 13.3643C15.4099 13.1154 15.3352 12.8737 15.2448 12.642C14.9816 12.0478 13.2349 12.8058 12.4614 13.1164C12.418 13.2013 12.2365 13.4559 12.1716 13.6681C13.1085 13.4177 13.7828 13.0536 14.4033 12.8635C14.6483 12.7888 14.9025 12.72 15.0951 13.2463C15.2876 13.7725 15.3032 14.0365 15.8731 14.5959C16.17 14.8879 16.5454 15.19 16.9221 15.5117C16.5013 15.0839 16.1843 14.6553 15.8258 14.1689Z" fill="#F28F8F"/>
<path d="M10.2122 9.55658C10.2122 9.55658 11.7469 9.65504 12.0075 9.67965C12.0075 9.67965 11.4299 9.88336 12.1327 11.7431C12.8355 13.6028 13.6751 13.5926 13.6751 13.5926C12.5729 14.0543 12.0004 14.5729 10.5954 14.3565C8.92072 14.0399 7.9054 12.3983 7.9054 12.3983L10.2122 9.55658Z" fill="#455A64"/>
<path opacity="0.15" d="M13.6712 13.5925C13.6585 13.5936 13.6457 13.5936 13.633 13.5925C13.5078 13.5739 13.1357 13.4669 12.7188 12.8855C12.3879 13.0011 12.0521 13.0915 11.7132 13.1563C10.4606 13.3965 9.5211 13.107 8.1213 12.1301L7.9054 12.3966C8.46092 13.2167 9.17356 13.828 9.96976 14.1672C10.0184 14.1867 10.0683 14.2062 10.1189 14.224C10.1662 14.2402 10.2142 14.2563 10.2622 14.2707L10.2751 14.275C10.3192 14.2885 10.3646 14.3004 10.41 14.3123L10.434 14.3183C10.4871 14.3318 10.5403 14.3437 10.5948 14.3539C10.683 14.3675 10.7672 14.3777 10.8489 14.3862C10.9306 14.3946 11.0091 14.3989 11.0856 14.4023H11.1977C11.2347 14.4023 11.271 14.4023 11.3067 14.4023C11.4136 14.4023 11.5154 14.3912 11.6133 14.3785C11.6782 14.37 11.7417 14.3598 11.804 14.348C11.9539 14.3182 12.1024 14.2774 12.2487 14.2257C12.3058 14.2054 12.3622 14.1841 12.4179 14.1612C12.5586 14.1052 12.6974 14.0424 12.84 13.9745L13.0131 13.8896C13.218 13.7912 13.4333 13.6876 13.6745 13.5866L13.6712 13.5925Z" fill="black"/>
<path d="M5.08057 7.02463C4.45685 7.30813 3.8675 7.80382 4.36738 9.25441C5.08057 11.3492 8.31327 13.6749 9.97306 14.1689C9.1302 12.4993 9.83172 10.7296 10.3822 9.56761L10.2337 8.14843C10.2337 8.14843 9.73577 7.83523 8.91106 7.00087C8.08635 6.16651 7.74402 5.93988 6.51668 6.42878C5.67317 6.7649 5.08057 7.02463 5.08057 7.02463Z" fill="url(#paint1_linear_23_919)"/>
<path opacity="0.05" d="M7.60708 11.7591C5.90969 10.4859 5.37609 9.35194 4.71023 8.26294L4.27454 8.95895C4.28621 9.00393 4.29917 9.04977 4.31344 9.0973C4.31319 9.09984 4.31319 9.1024 4.31344 9.10494C4.3277 9.15332 4.34391 9.2034 4.36142 9.25433C4.67781 10.171 5.47205 11.1319 6.40568 11.9679C6.53535 12.0867 6.6754 12.203 6.81285 12.3159C6.88222 12.3728 6.9516 12.4288 7.02162 12.4857C7.49644 12.8578 7.98791 13.1923 8.49339 13.4872C8.96764 13.7739 9.4615 14.0012 9.9684 14.1663C9.78378 13.8071 9.66039 13.4001 9.60661 12.9729C9.01661 12.7403 8.38381 12.3422 7.60708 11.7591Z" fill="black"/>
<path d="M4.6124 7.30905C4.6124 7.30905 2.51886 5.84404 2.18755 5.64627L4.0198 4.23813L3.63079 2.91656C3.63079 2.91656 0.907698 4.18381 0.389013 4.54794C0.117352 4.74061 0 4.89934 0 5.17265C0 5.62845 0.33131 6.21921 0.790345 6.73103C1.76612 7.82002 3.09006 8.83433 4.37964 9.76121C4.67529 10.0481 4.98261 10.4088 4.98261 10.4088C5.3217 10.6312 5.8151 8.57884 4.6124 7.30905Z" fill="#FFEDE5"/>
<path d="M6.57239 2.21705C6.44162 1.81961 6.1956 1.50646 5.88846 1.34648C5.58133 1.18651 5.23823 1.19281 4.93464 1.36401C4.63106 1.53521 4.39185 1.85728 4.26965 2.25936C4.14746 2.66145 4.15227 3.11062 4.28304 3.50806C4.29147 3.53522 4.30185 3.55983 4.31157 3.5853L3.99517 4.48671L3.52771 3.35867C3.5279 3.26981 3.50286 3.18404 3.45745 3.118C3.41204 3.05196 3.3495 3.01038 3.28198 3.00133C3.24774 2.9975 3.21326 3.00283 3.18065 3.01699C3.14803 3.03115 3.11795 3.05385 3.09224 3.0837C3.06652 3.11355 3.04572 3.14993 3.03108 3.19063C3.01644 3.23134 3.00827 3.27551 3.00708 3.32047L3.36432 3.36121C3.28593 3.42929 3.22584 3.52785 3.19251 3.64301C3.10758 3.9333 3.40323 4.52491 3.79937 5.04437C3.79937 5.04437 4.3602 6.08074 4.49635 6.22588C4.58408 6.31329 4.69406 6.35339 4.80367 6.33792L4.83739 4.30083C5.06511 4.46172 5.32546 4.52577 5.58226 4.48406C5.83906 4.44236 6.07957 4.29698 6.27035 4.06811C6.46114 3.83925 6.59274 3.53827 6.64687 3.207C6.701 2.87573 6.67496 2.53061 6.57239 2.21959V2.21705Z" fill="#263238"/>
<path d="M4.27069 4.83816C4.21883 4.93238 4.06063 4.8127 3.93549 4.7431C3.81036 4.6735 3.47516 4.67095 3.4622 5.13863C3.44923 5.60632 3.88816 5.98742 4.14037 5.95262C4.57477 5.89406 4.52939 5.54011 4.52939 5.54011L5.16737 7.38963C5.90585 7.91927 7.28036 7.08576 6.45565 6.56205L6.27346 6.01289C6.4311 5.95744 6.58337 5.87855 6.72731 5.77777C6.98665 5.56218 7.07159 5.17174 7.02555 4.72442C6.95229 4.0072 6.83105 3.46057 6.30329 2.26293C5.71977 0.954097 4.48789 1.63143 4.00681 2.55067C3.52573 3.46991 4.27069 4.83816 4.27069 4.83816Z" fill="#FFEDE5"/>
<path d="M4.32189 4.9952C4.28688 5.01642 4.05672 4.80083 3.93288 4.74566C3.76496 4.67012 3.492 3.27895 3.492 3.27895C3.492 3.27895 3.26896 3.02007 3.3915 2.55323C3.492 2.17043 3.86286 1.91409 4.11961 1.74434C4.58253 1.43792 5.10057 1.08907 5.32749 0.447385C5.34565 0.396457 5.37158 0.338739 5.41437 0.337891C5.42766 0.339443 5.44059 0.344445 5.45239 0.352606C5.46419 0.360767 5.47463 0.371923 5.4831 0.385423C5.58999 0.542517 5.65026 0.744612 5.65297 0.954961C5.65297 0.974483 5.6575 0.999098 5.67242 1.00504C5.68733 1.01098 5.69835 0.994854 5.70743 0.980425C5.75451 0.904944 5.79036 0.818572 5.81311 0.725788C5.84423 0.599318 6.00762 0.92101 6.01929 0.965147C6.05751 1.10478 6.074 1.25303 6.06776 1.40114C6.06152 1.54925 6.0327 1.69423 5.98298 1.82752C5.88184 2.09319 5.67371 2.25785 5.4831 2.403C5.05842 2.72724 4.33227 3.0362 4.23112 3.07269C4.09367 3.12277 4.12025 3.30356 4.19806 3.79332C4.26938 4.2262 4.43925 4.92306 4.32189 4.9952Z" fill="#263238"/>
<path d="M6.27353 6.01286C6.27353 6.01286 5.51495 6.22251 5.24524 6.1962C5.087 6.18116 4.93598 6.10361 4.81213 5.97382C4.90016 6.12346 5.01044 6.24819 5.13631 6.34049C5.38528 6.51874 6.34485 6.23439 6.34485 6.23439L6.27353 6.01286Z" fill="#F28F8F"/>
<path d="M5.0884 3.42839L4.86277 3.75093C4.83027 3.70955 4.81125 3.65332 4.80968 3.594C4.80811 3.53468 4.82411 3.47686 4.85435 3.43263C4.86935 3.4119 4.88738 3.39531 4.90736 3.38384C4.92734 3.37237 4.94887 3.36626 4.97069 3.36587C4.99251 3.36547 5.01416 3.3708 5.03438 3.38154C5.05459 3.39227 5.07296 3.4082 5.0884 3.42839Z" fill="#263238"/>
<path d="M5.81506 5.07591L6.14897 5.05554C6.15101 5.0843 6.14859 5.1133 6.14187 5.1408C6.13515 5.16831 6.12427 5.19376 6.10986 5.21563C6.09545 5.2375 6.07783 5.25534 6.05803 5.26809C6.03824 5.28083 6.01668 5.28822 5.99466 5.28981C5.94941 5.29148 5.90542 5.27013 5.87193 5.23025C5.83845 5.19036 5.81806 5.13505 5.81506 5.07591Z" fill="#F28F8F"/>
<path d="M6.46151 2.91647L6.13733 2.80782C6.14174 2.77956 6.15048 2.75276 6.16304 2.72905C6.17559 2.70535 6.19169 2.68522 6.21037 2.66991C6.22904 2.65459 6.24989 2.64439 6.27166 2.63994C6.29344 2.63549 6.31567 2.63687 6.33702 2.64401C6.38037 2.66014 6.41738 2.69732 6.44051 2.74794C6.46364 2.79857 6.47115 2.85884 6.46151 2.91647Z" fill="#263238"/>
<path d="M5.76978 3.58105L5.99086 4.62252L6.37988 4.31356L5.76978 3.58105Z" fill="#F28F8F"/>
<path d="M5.15442 4.04797C5.15455 4.08554 5.16318 4.12222 5.17921 4.15337C5.19525 4.18453 5.21797 4.20876 5.24452 4.22302C5.27107 4.23728 5.30025 4.24093 5.32838 4.2335C5.35651 4.22606 5.38233 4.20789 5.40257 4.18127C5.42282 4.15464 5.43659 4.12076 5.44214 4.08391C5.44769 4.04705 5.44478 4.00886 5.43377 3.97417C5.42276 3.93948 5.40414 3.90983 5.38027 3.88898C5.3564 3.86813 5.32835 3.857 5.29965 3.85699C5.28053 3.85699 5.26159 3.86194 5.24392 3.87155C5.22626 3.88116 5.21022 3.89524 5.19673 3.91298C5.18323 3.93073 5.17255 3.95179 5.16529 3.97495C5.15803 3.99812 5.15434 4.02293 5.15442 4.04797Z" fill="#263238"/>
<path d="M6.20545 3.50902C6.20532 3.54552 6.21348 3.58125 6.22889 3.61167C6.2443 3.64209 6.26626 3.66583 6.292 3.67988C6.31773 3.69392 6.34608 3.69764 6.37343 3.69056C6.40078 3.68348 6.42591 3.66592 6.44562 3.64011C6.46534 3.6143 6.47875 3.5814 6.48416 3.5456C6.48957 3.50979 6.48673 3.47268 6.476 3.43899C6.46527 3.4053 6.44714 3.37655 6.4239 3.35637C6.40066 3.3362 6.37337 3.32552 6.34549 3.32569C6.3084 3.32591 6.27288 3.3453 6.24665 3.37963C6.22043 3.41397 6.20562 3.46047 6.20545 3.50902Z" fill="#263238"/>
<path d="M18.4054 17.8416C18.3503 17.8908 18.4359 18.2015 18.4858 18.2779C18.5898 18.4102 18.7183 18.505 18.8586 18.5529C19.1139 18.6553 19.3524 18.8187 19.5621 19.035C19.8207 19.3091 20.1215 19.5069 20.4438 19.6147C20.8264 19.7259 21.2686 19.5842 21.6543 19.2846C22.0589 18.9714 22.0213 18.6709 21.9662 18.4706L18.4054 17.8416Z" fill="#37474F"/>
<path d="M19.2807 16.0983C19.4104 16.2782 20.1158 17.1915 20.6572 17.4241C21.0884 17.6091 21.6492 17.7857 21.8949 18.1294C22.1504 18.4876 21.7698 18.946 21.2466 19.2091C20.7006 19.4824 20.3298 19.2617 19.9674 19.0232C19.7126 18.8534 19.3372 18.5139 19.1485 18.3773C18.9598 18.2406 18.6103 18.1659 18.4645 17.9631C18.3841 17.851 18.3264 17.5387 18.2914 17.2645C18.2596 17.0099 18.1312 16.7798 18.1967 16.7663L18.303 16.9182C18.7958 17.037 19.3093 16.4412 19.2807 16.0983Z" fill="url(#paint2_linear_23_919)"/>
<path d="M2.18753 5.64618C1.87682 5.86591 1.54128 6.01922 1.1936 6.10028C1.1936 6.10028 1.74406 6.28107 2.3989 5.78453L2.18753 5.64618Z" fill="#F28F8F"/>
</g>
<defs>
<linearGradient id="paint0_linear_23_919" x1="17.219" y1="8.22138" x2="13.9842" y2="8.0875" gradientUnits="userSpaceOnUse">
<stop stop-color="#92A3FD"/>
<stop offset="1" stop-color="#9DCEFF"/>
</linearGradient>
<linearGradient id="paint1_linear_23_919" x1="10.3822" y1="14.1689" x2="2.09607" y2="13.6715" gradientUnits="userSpaceOnUse">
<stop stop-color="#92A3FD"/>
<stop offset="1" stop-color="#9DCEFF"/>
</linearGradient>
<linearGradient id="paint2_linear_23_919" x1="21.9764" y1="19.3354" x2="16.9257" y2="18.8768" gradientUnits="userSpaceOnUse">
<stop stop-color="#92A3FD"/>
<stop offset="1" stop-color="#9DCEFF"/>
</linearGradient>
<clipPath id="clip0_23_919">
<rect width="22" height="19.6529" fill="white"/>
</clipPath>
</defs>
</svg>
