<svg width="23" height="30" viewBox="0 0 23 30" fill="none" xmlns="http://www.w3.org/2000/svg">
<g clip-path="url(#clip0_23_559)">
<g opacity="0.3">
<path opacity="0.3" d="M5.77375 18.0412H5.7598L5.224 17.8855C5.20562 17.8798 5.19017 17.8669 5.18097 17.8497C5.17176 17.8325 5.16954 17.8122 5.17477 17.7934C5.18 17.7745 5.19228 17.7584 5.20896 17.7487C5.22564 17.7389 5.2454 17.7362 5.264 17.7412L5.79608 17.895C5.81295 17.9006 5.82725 17.9123 5.83634 17.9279C5.84542 17.9435 5.84868 17.9619 5.8455 17.9797C5.84232 17.9975 5.83293 18.0136 5.81906 18.0249C5.80519 18.0362 5.78777 18.042 5.77003 18.0412H5.77375Z" fill="black"/>
<path opacity="0.3" d="M5.22479 18.4627C5.20962 18.4613 5.19525 18.4552 5.1836 18.4451C5.17196 18.4351 5.16361 18.4217 5.15967 18.4067C5.15674 18.3968 5.15582 18.3865 5.15698 18.3762C5.15814 18.366 5.16135 18.3561 5.16641 18.3472C5.17147 18.3383 5.17828 18.3306 5.1864 18.3245C5.19452 18.3184 5.20379 18.314 5.21362 18.3117L5.74943 18.1731C5.76802 18.169 5.78744 18.1724 5.80362 18.1826C5.81979 18.1929 5.83145 18.2091 5.83615 18.2279C5.84085 18.2467 5.83821 18.2667 5.82881 18.2835C5.8194 18.3004 5.80395 18.3129 5.7857 18.3184L5.24897 18.457C5.24129 18.4603 5.23311 18.4622 5.22479 18.4627Z" fill="black"/>
<path opacity="0.3" d="M5.49836 18.9679C5.48072 18.9661 5.46425 18.9581 5.45185 18.9451C5.43828 18.9311 5.43066 18.9121 5.43066 18.8924C5.43066 18.8727 5.43828 18.8538 5.45185 18.8397L5.84812 18.4457C5.85487 18.4381 5.86306 18.432 5.8722 18.4278C5.88134 18.4235 5.89122 18.4213 5.90126 18.4211C5.91129 18.4209 5.92125 18.4228 5.93052 18.4267C5.9398 18.4306 5.94819 18.4364 5.95519 18.4438C5.96219 18.4511 5.96764 18.4598 5.97121 18.4694C5.97478 18.479 5.97639 18.4892 5.97595 18.4994C5.9755 18.5096 5.97301 18.5197 5.96863 18.5289C5.96424 18.5381 5.95805 18.5463 5.95045 18.553L5.55604 18.9489C5.54824 18.956 5.53908 18.9613 5.52915 18.9646C5.51923 18.9678 5.50874 18.969 5.49836 18.9679Z" fill="black"/>
<path opacity="0.3" d="M5.97926 19.2669H5.9653C5.9558 19.2642 5.94693 19.2596 5.93923 19.2533C5.93152 19.247 5.92513 19.2392 5.92045 19.2303C5.91576 19.2215 5.91287 19.2117 5.91194 19.2017C5.91102 19.1917 5.91208 19.1816 5.91507 19.172L6.06204 18.6289C6.06766 18.6101 6.08026 18.5943 6.09714 18.5849C6.11402 18.5755 6.13383 18.5733 6.15232 18.5786C6.17082 18.5839 6.18653 18.5965 6.19609 18.6135C6.20564 18.6305 6.20828 18.6507 6.20344 18.6697L6.05274 19.2128C6.04818 19.2289 6.03846 19.243 6.02514 19.2528C6.01182 19.2626 5.99567 19.2676 5.97926 19.2669Z" fill="black"/>
</g>
<path d="M20.5108 10.8355L19.1778 11.6188L16.2588 12.0499C16.2588 12.0499 14.1277 8.78175 13.8012 8.26807C13.4747 7.7544 13.0924 7.42493 12.2078 7.42587L12.3752 10.0332C12.4031 10.1177 14.1677 12.3366 15.3314 13.5463C15.7426 13.9726 15.9946 14.0818 16.6337 13.8995C18.2737 13.4352 20.2615 12.0594 20.4215 11.7157C20.6364 11.2666 20.495 10.845 20.5108 10.8355Z" fill="#FFEDE5"/>
<path d="M19.963 9.18253C20.1379 8.59954 20.8523 8.1248 21.5155 8.3147C21.6206 8.34433 21.7213 8.38807 21.815 8.44478C22.4662 8.82457 22.9843 9.75033 22.9843 10.5118C22.9864 10.6404 22.9689 10.7686 22.9322 10.8916C22.7583 11.4737 22.0457 11.9522 21.3797 11.7614C21.2748 11.7313 21.1741 11.6876 21.0802 11.6313C20.4346 11.2515 19.9109 10.3248 19.9109 9.56328C19.909 9.43439 19.9266 9.30597 19.963 9.18253Z" fill="#455A64"/>
<path d="M21.0811 11.6257C20.4356 11.2459 19.9119 10.3192 19.9119 9.55767C19.9119 8.79618 20.4356 8.48854 21.0811 8.86834C21.7267 9.24814 22.2476 10.1739 22.2476 10.9354C22.2476 11.6969 21.7267 12.0055 21.0811 11.6257Z" fill="#37474F"/>
<path d="M21.081 9.71232C20.8326 9.5661 20.6307 9.68478 20.6307 9.97723C20.6392 10.1366 20.6844 10.2918 20.7626 10.43C20.8408 10.5683 20.9499 10.6858 21.081 10.7729C21.3293 10.9191 21.5303 10.8004 21.5303 10.508C21.522 10.3486 21.477 10.1935 21.3989 10.0553C21.3208 9.91701 21.2119 9.79951 21.081 9.71232Z" fill="#455A64"/>
<path d="M20.9266 10.152C20.9296 10.2066 20.9451 10.2597 20.972 10.307C20.9988 10.3544 21.0362 10.3946 21.081 10.4245C21.0958 10.4353 21.1129 10.4423 21.1309 10.4448C21.1489 10.4473 21.1673 10.4452 21.1843 10.4387L21.1955 10.4321C21.2088 10.4204 21.2192 10.4058 21.226 10.3893C21.2328 10.3728 21.2357 10.355 21.2345 10.3371C21.2316 10.2826 21.2161 10.2296 21.1895 10.1823C21.1628 10.1349 21.1257 10.0946 21.081 10.0646C21.0663 10.0538 21.0492 10.0468 21.0312 10.0443C21.0131 10.0418 20.9948 10.0439 20.9778 10.0504L20.9666 10.057C20.9531 10.0685 20.9424 10.0831 20.9355 10.0996C20.9285 10.1161 20.9255 10.134 20.9266 10.152Z" fill="#37474F"/>
<path d="M18.4571 11.6075C18.4599 11.6621 18.4753 11.7151 18.502 11.7625C18.5287 11.8098 18.5658 11.8501 18.6106 11.88C18.6305 11.8932 18.6537 11.9004 18.6775 11.9009C18.6956 11.9006 18.7132 11.8953 18.7287 11.8857L21.1844 10.4387L21.1956 10.4321C21.2089 10.4204 21.2194 10.4058 21.2261 10.3893C21.2329 10.3728 21.2358 10.355 21.2347 10.3371C21.2317 10.2826 21.2163 10.2296 21.1896 10.1823C21.163 10.1349 21.1258 10.0946 21.0812 10.0646C21.0664 10.0538 21.0493 10.0468 21.0313 10.0443C21.0133 10.0418 20.995 10.0439 20.9779 10.0504L20.9668 10.057L18.511 11.504C18.4934 11.5144 18.479 11.5295 18.4694 11.5479C18.4599 11.5662 18.4556 11.5869 18.4571 11.6075Z" fill="#FAFAFA"/>
<path d="M16.0468 11.4908C16.2208 10.9087 16.9333 10.4273 17.5993 10.6182C17.7045 10.6484 17.8054 10.6921 17.8998 10.7483C18.5454 11.1281 19.0691 12.0548 19.0691 12.8163C19.0707 12.9448 19.0531 13.0729 19.017 13.1961C18.8421 13.7781 18.1305 14.2566 17.4645 14.0667C17.3596 14.0365 17.259 13.9928 17.1649 13.9367C16.5194 13.5569 15.9957 12.6302 15.9957 11.8696C15.9935 11.7414 16.0108 11.6136 16.0468 11.4908Z" fill="#455A64"/>
<path d="M17.164 13.9329C16.5185 13.5531 15.9948 12.6264 15.9948 11.8658C15.9948 11.1053 16.5185 10.7958 17.164 11.1756C17.8096 11.5554 18.3333 12.4821 18.3333 13.2436C18.3333 14.005 17.8105 14.3136 17.164 13.9329Z" fill="#37474F"/>
<path d="M17.164 12.0178C16.9156 11.8706 16.7147 11.9893 16.7147 12.2827C16.7231 12.4419 16.7682 12.5968 16.8463 12.7349C16.9243 12.873 17.0332 12.9903 17.164 13.0774C17.4124 13.2237 17.6142 13.105 17.6142 12.8125C17.6056 12.6533 17.5604 12.4983 17.4822 12.3602C17.404 12.2222 17.295 12.1049 17.164 12.0178Z" fill="#455A64"/>
<path d="M17.0106 12.4593C17.0135 12.5138 17.0289 12.5668 17.0555 12.6142C17.0822 12.6615 17.1194 12.7018 17.1641 12.7318C17.1788 12.7426 17.196 12.7496 17.214 12.7521C17.232 12.7545 17.2503 12.7525 17.2673 12.746C17.2715 12.7446 17.2753 12.7423 17.2785 12.7394C17.292 12.7278 17.3026 12.7132 17.3096 12.6967C17.3165 12.6802 17.3196 12.6623 17.3185 12.6444C17.3155 12.5898 17.2999 12.5367 17.2731 12.4894C17.2463 12.4421 17.2089 12.4018 17.1641 12.3719C17.1494 12.3614 17.1324 12.3547 17.1145 12.3523C17.0967 12.35 17.0786 12.3522 17.0618 12.3586L17.0506 12.3653C17.0371 12.3765 17.0264 12.391 17.0195 12.4073C17.0125 12.4237 17.0095 12.4415 17.0106 12.4593Z" fill="#37474F"/>
<path d="M16.6386 12.6823C16.6412 12.7368 16.6565 12.79 16.6832 12.8374C16.7099 12.8847 16.7472 12.925 16.7921 12.9548C16.8121 12.9679 16.8353 12.9752 16.859 12.9757C16.8771 12.9752 16.8947 12.97 16.9102 12.9605L17.2674 12.7497C17.2715 12.7483 17.2753 12.746 17.2786 12.743C17.292 12.7315 17.3027 12.7169 17.3096 12.7004C17.3166 12.6839 17.3196 12.666 17.3186 12.6481C17.3155 12.5935 17.3 12.5404 17.2731 12.4931C17.2463 12.4458 17.209 12.4055 17.1642 12.3756C17.1494 12.3651 17.1324 12.3584 17.1146 12.356C17.0968 12.3537 17.0787 12.3559 17.0618 12.3623L17.0507 12.3689L16.6925 12.5788C16.6749 12.5891 16.6605 12.6043 16.651 12.6226C16.6414 12.6409 16.6371 12.6616 16.6386 12.6823Z" fill="#FAFAFA"/>
<path d="M16.6385 12.6825C16.6412 12.7371 16.6565 12.7904 16.6832 12.8379C16.7099 12.8854 16.7471 12.9259 16.792 12.9559C16.8068 12.9665 16.824 12.9732 16.842 12.9755C16.86 12.9778 16.8782 12.9756 16.8952 12.9692L16.9064 12.9626C16.92 12.9511 16.9307 12.9365 16.9376 12.92C16.9446 12.9035 16.9476 12.8855 16.9464 12.8676C16.9432 12.8129 16.9276 12.7597 16.9008 12.7122C16.874 12.6648 16.8368 12.6243 16.792 12.5942C16.7771 12.5836 16.7599 12.5769 16.7419 12.5746C16.7239 12.5723 16.7057 12.5744 16.6887 12.5809L16.6775 12.5875C16.6642 12.5991 16.6537 12.6137 16.6469 12.6302C16.6401 12.6467 16.6372 12.6646 16.6385 12.6825Z" fill="#E0E0E0"/>
<path d="M19.6588 12.3841C20.2235 11.9445 20.7649 11.9474 20.6672 10.8725C20.5844 10.3978 20.469 10.3636 20.016 10.1832C19.817 10.1044 19.5509 10.0446 19.3919 10.2307C19.3744 10.2541 19.3551 10.276 19.3342 10.2962C19.2873 10.3267 19.2335 10.3444 19.1779 10.3475C19.0719 10.3527 18.971 10.3961 18.8933 10.4699C18.8403 10.5317 18.8198 10.6162 18.7677 10.6779C18.7177 10.7263 18.6638 10.7704 18.6068 10.8099C18.5659 10.8461 18.5329 10.8906 18.51 10.9407C18.4871 10.9908 18.4747 11.0452 18.4738 11.1004C18.4775 11.1636 18.4948 11.2251 18.5244 11.2807C18.5539 11.3363 18.5951 11.3847 18.6449 11.4223L18.9296 11.2552C19.0458 11.1735 19.2858 11.465 19.1826 11.6188C19.0179 11.8638 19.6588 12.3841 19.6588 12.3841Z" fill="#FFEDE5"/>
<path d="M13.0823 14.5452C13.2627 13.8008 13.3148 11.9408 13.3148 11.9408L8.03308 12.1022L8.32052 13.2767C8.36794 13.5415 8.39315 13.8099 8.39586 14.079C8.39586 14.079 8.90841 15.0485 10.4284 15.2184C11.3623 15.3093 12.2986 15.0718 13.0823 14.5452Z" fill="#FFEDE5"/>
<path d="M13.3177 11.9408C13.3242 11.9996 13.287 12.5627 13.287 12.5627C12.6116 13.1428 10.4452 13.4362 8.17081 12.6643L7.68896 10.7653C7.68896 10.7653 9.32428 10.0323 8.21919 7.57311L9.40706 7.47816L11.5159 7.42404H12.2079C12.777 7.98836 13.2579 8.6384 13.6339 9.35151C13.9102 9.87753 14.2618 10.6485 13.3177 11.9408Z" fill="#455A64"/>
<path d="M10.329 11.9578C9.37735 11.7099 9.13921 11.1032 9.07131 10.657C9.07131 10.657 8.89178 11.9578 10.2517 12.2606C11.6861 12.5797 12.2759 11.4203 12.2759 11.4203C12.2759 11.4203 11.4768 12.2568 10.329 11.9578Z" fill="#37474F"/>
<path d="M2.22855 26.4328C1.94948 26.6407 1.30671 26.691 0.740209 26.4195C0.173711 26.1479 -0.0625621 25.375 0.0434819 24.7778C0.171851 24.0495 0.524401 23.6517 0.613701 23.213C0.703001 22.7744 0.613701 22.1686 0.749512 21.7774C0.805494 21.627 0.89267 21.4908 1.00506 21.378C1.11745 21.2653 1.2524 21.1787 1.40066 21.1241C1.49518 21.0869 1.59681 21.0722 1.69775 21.0812C1.7987 21.0903 1.89627 21.1228 1.98297 21.1764L2.15041 21.277L2.22855 26.4328Z" fill="#263238"/>
<path d="M2.89376 23.6555L2.45284 25.0057C2.45284 25.0057 2.7319 25.9685 2.57469 26.2249C2.34307 26.6047 1.93471 26.6711 1.24728 26.4565C0.461257 26.2125 0.276146 25.4862 0.317075 24.9222C0.372888 24.1179 1.10124 23.5131 1.01752 22.7383C0.976594 22.3585 1.02776 21.9341 1.23147 21.6075C1.45937 21.2429 1.83332 21.1745 2.22121 21.2932C2.55423 21.3958 2.84632 21.6094 3.12817 21.8097C3.20909 21.8623 3.28236 21.9262 3.34584 21.9996C3.39633 22.0684 3.43416 22.1459 3.45746 22.2285C3.50846 22.3944 3.52369 22.5696 3.50211 22.7421C3.48165 22.9035 3.38026 22.9975 3.2863 23.1219L2.89376 23.6555Z" fill="url(#paint0_linear_23_559)"/>
<path d="M4.79399 23.0166C4.76701 23.0062 3.42007 22.127 3.27496 22.0605C3.12984 21.994 2.77264 21.9 2.42754 22.7157C2.18103 23.2958 2.53544 23.5104 2.53544 23.5104L4.1168 24.4694L4.79399 23.0166Z" fill="#FFEDE5"/>
<path d="M2.45268 25.0057C2.16768 24.8603 1.85216 24.7883 1.53363 24.7959C1.50998 24.7981 1.48615 24.7944 1.46423 24.7851C1.44231 24.7758 1.42296 24.7611 1.4079 24.7423C1.39284 24.7236 1.38252 24.7013 1.37784 24.6776C1.37316 24.6538 1.37428 24.6292 1.38108 24.606C1.39003 24.5783 1.40683 24.554 1.42936 24.5361C1.45188 24.5181 1.47911 24.5074 1.50759 24.5053C1.72061 24.4883 2.2378 24.4816 2.58105 24.7703C2.67221 24.9583 2.45268 25.0057 2.45268 25.0057Z" fill="url(#paint1_linear_23_559)"/>
<path d="M2.61454 24.3885C2.33739 24.2283 2.02597 24.14 1.70759 24.1312C1.68361 24.1324 1.65971 24.1275 1.63804 24.117C1.61636 24.1065 1.59759 24.0906 1.58339 24.0709C1.56919 24.0511 1.56002 24.0281 1.5567 24.0038C1.55337 23.9795 1.556 23.9548 1.56433 23.9318C1.57459 23.9045 1.59252 23.881 1.61585 23.8641C1.63919 23.8472 1.6669 23.8377 1.69549 23.8369C1.90944 23.8312 2.42664 23.853 2.755 24.1587C2.83593 24.3534 2.61454 24.3885 2.61454 24.3885Z" fill="url(#paint2_linear_23_559)"/>
<path opacity="0.3" d="M2.45268 25.0057C2.16768 24.8603 1.85216 24.7883 1.53363 24.7959C1.50998 24.7981 1.48615 24.7944 1.46423 24.7851C1.44231 24.7758 1.42296 24.7611 1.4079 24.7423C1.39284 24.7236 1.38252 24.7013 1.37784 24.6776C1.37316 24.6538 1.37428 24.6292 1.38108 24.606C1.39003 24.5783 1.40683 24.554 1.42936 24.5361C1.45188 24.5181 1.47911 24.5074 1.50759 24.5053C1.72061 24.4883 2.2378 24.4816 2.58105 24.7703C2.67221 24.9583 2.45268 25.0057 2.45268 25.0057Z" fill="black"/>
<path opacity="0.3" d="M2.61454 24.3885C2.33739 24.2283 2.02597 24.14 1.70759 24.1312C1.68361 24.1324 1.65971 24.1275 1.63804 24.117C1.61636 24.1065 1.59759 24.0906 1.58339 24.0709C1.56919 24.0511 1.56002 24.0281 1.5567 24.0038C1.55337 23.9795 1.556 23.9548 1.56433 23.9318C1.57459 23.9045 1.59252 23.881 1.61585 23.8641C1.63919 23.8472 1.6669 23.8377 1.69549 23.8369C1.90944 23.8312 2.42664 23.853 2.755 24.1587C2.83593 24.3534 2.61454 24.3885 2.61454 24.3885Z" fill="black"/>
<path d="M16.3419 26.579L18.0916 25.8707C18.0618 25.4102 17.9502 24.7968 18.0665 23.5919L16.0814 23.2064V25.2345L16.3419 26.579Z" fill="#FFEDE5"/>
<path d="M21.3342 28.1477C21.3807 28.2914 21.372 28.4479 21.31 28.5854C21.2504 28.7136 20.5946 29.0905 19.71 29.0298C19.054 28.9828 18.4223 28.7576 17.8803 28.3775C17.5436 28.1496 17.1919 28.1068 16.7547 28.0812C16.3175 28.0556 15.7408 27.8324 15.645 27.6236C15.5492 27.4147 15.6599 27.0539 15.6599 27.0539L21.3342 28.1477Z" fill="#263238"/>
<path d="M17.7648 25.3296L17.8346 25.3144C17.8725 25.304 17.9122 25.302 17.9509 25.3087C17.9938 25.3222 18.032 25.3483 18.0606 25.3837C18.1472 25.4963 18.2226 25.6175 18.2858 25.7454C18.4718 26.054 18.8606 26.3104 19.2857 26.543C19.575 26.7016 19.8578 26.8279 20.1564 26.9617C20.455 27.0956 20.8643 27.1868 21.1024 27.351C21.4494 27.5893 21.495 28.1894 21.1024 28.4258C20.762 28.6309 19.8643 28.8522 18.9229 28.5797C18.4095 28.4315 17.8402 27.8723 17.1676 27.8201C16.7397 27.7859 15.9295 27.6634 15.6542 27.332C15.5528 27.1849 15.6886 26.7177 15.8002 26.3151C15.9221 25.8755 15.9667 25.1007 16.11 25.1397C16.11 25.1397 16.0709 25.2488 16.1267 25.3077C16.1825 25.3666 16.3788 25.4843 16.4365 25.5337C16.5329 25.6341 16.6108 25.7515 16.6663 25.8803C16.6893 25.9384 16.7323 25.986 16.7872 26.0141C16.8597 26.0417 16.9137 25.9951 16.9732 25.9657C17.0537 25.929 17.1444 25.9226 17.229 25.9477C17.2209 25.8604 17.2056 25.7741 17.1835 25.6894C17.1739 25.6627 17.1717 25.6338 17.1769 25.6059C17.1886 25.5798 17.2078 25.558 17.2318 25.5432C17.3929 25.4347 17.5745 25.362 17.7648 25.3296Z" fill="url(#paint3_linear_23_559)"/>
<path d="M18.8857 26.3056C18.8857 26.3056 18.8243 26.1376 18.5704 26.0901C18.375 26.0531 18.0308 26.1993 17.8169 26.3749C17.7968 26.3919 17.781 26.4136 17.7709 26.4382C17.7608 26.4628 17.7568 26.4895 17.759 26.516C17.7613 26.5426 17.7699 26.5681 17.784 26.5905C17.7982 26.6129 17.8174 26.6315 17.8401 26.6446C17.8693 26.6616 17.9031 26.6688 17.9365 26.665C17.9699 26.6613 18.0013 26.6468 18.0262 26.6237C18.2617 26.4084 18.5697 26.2944 18.8857 26.3056Z" fill="url(#paint4_linear_23_559)"/>
<path d="M19.4895 26.6504C19.4473 26.5897 19.3916 26.5402 19.3268 26.506C19.2621 26.4718 19.1903 26.4539 19.1174 26.4538C19.1174 26.4538 18.6086 26.469 18.2932 26.7681C18.274 26.7846 18.259 26.8056 18.2494 26.8292C18.2398 26.8529 18.236 26.8786 18.2381 26.9041C18.2403 26.9296 18.2485 26.9542 18.262 26.9759C18.2755 26.9975 18.2938 27.0154 18.3156 27.0283C18.3432 27.0439 18.3749 27.0504 18.4063 27.0466C18.4377 27.0429 18.4671 27.0291 18.4905 27.0074C18.6203 26.8755 18.7774 26.775 18.9503 26.7133C19.1232 26.6515 19.3074 26.63 19.4895 26.6504Z" fill="url(#paint5_linear_23_559)"/>
<path d="M20.1565 26.9616C20.108 26.9053 20.0481 26.8603 19.981 26.8297C19.914 26.799 19.8412 26.7835 19.7677 26.7841C19.7677 26.7841 19.2933 26.8021 18.9789 27.1012C18.9594 27.1175 18.9442 27.1384 18.9344 27.162C18.9246 27.1857 18.9206 27.2114 18.9227 27.237C18.9248 27.2626 18.9329 27.2873 18.9465 27.309C18.96 27.3306 18.9784 27.3486 19.0003 27.3614C19.0281 27.377 19.0599 27.3834 19.0915 27.3796C19.123 27.3759 19.1526 27.3622 19.1761 27.3405C19.2994 27.2038 19.4522 27.0984 19.6224 27.0326C19.7926 26.9668 19.9755 26.9425 20.1565 26.9616Z" fill="url(#paint6_linear_23_559)"/>
<path opacity="0.3" d="M18.8857 26.3056C18.8857 26.3056 18.8243 26.1376 18.5704 26.0901C18.375 26.0531 18.0308 26.1993 17.8169 26.3749C17.7968 26.3919 17.781 26.4136 17.7709 26.4382C17.7608 26.4628 17.7568 26.4895 17.759 26.516C17.7613 26.5426 17.7699 26.5681 17.784 26.5905C17.7982 26.6129 17.8174 26.6315 17.8401 26.6446C17.8693 26.6616 17.9031 26.6688 17.9365 26.665C17.9699 26.6613 18.0013 26.6468 18.0262 26.6237C18.2617 26.4084 18.5697 26.2944 18.8857 26.3056Z" fill="black"/>
<path opacity="0.3" d="M19.4895 26.6504C19.4473 26.5897 19.3916 26.5402 19.3268 26.506C19.2621 26.4718 19.1903 26.4539 19.1174 26.4538C19.1174 26.4538 18.6086 26.469 18.2932 26.7681C18.274 26.7846 18.259 26.8056 18.2494 26.8292C18.2398 26.8529 18.236 26.8786 18.2381 26.9041C18.2403 26.9296 18.2485 26.9542 18.262 26.9759C18.2755 26.9975 18.2938 27.0154 18.3156 27.0283C18.3432 27.0439 18.3749 27.0504 18.4063 27.0466C18.4377 27.0429 18.4671 27.0291 18.4905 27.0074C18.6203 26.8755 18.7774 26.775 18.9503 26.7133C19.1232 26.6515 19.3074 26.63 19.4895 26.6504Z" fill="black"/>
<path opacity="0.3" d="M20.1565 26.9616C20.108 26.9053 20.0481 26.8603 19.981 26.8297C19.914 26.799 19.8412 26.7835 19.7677 26.7841C19.7677 26.7841 19.2933 26.8021 18.9789 27.1012C18.9594 27.1175 18.9442 27.1384 18.9344 27.162C18.9246 27.1857 18.9206 27.2114 18.9227 27.237C18.9248 27.2626 18.9329 27.2873 18.9465 27.309C18.96 27.3306 18.9784 27.3486 19.0003 27.3614C19.0281 27.377 19.0599 27.3834 19.0915 27.3796C19.123 27.3759 19.1526 27.3622 19.1761 27.3405C19.2994 27.2038 19.4522 27.0984 19.6224 27.0326C19.7926 26.9668 19.9755 26.9425 20.1565 26.9616Z" fill="black"/>
<path d="M17.5379 16.3939C16.2077 16.0891 13.031 15.4111 13.031 15.4111L13.0822 14.5452C11.9334 15.1529 9.51205 14.981 8.3958 14.079L8.21999 14.9972C7.79676 15.5144 7.43025 16.0773 7.127 16.6759C6.87212 17.1914 6.44608 17.9957 6.87026 19.869C7.11955 20.9695 7.45164 23.8664 7.45164 23.8664L4.1959 22.6415C4.1959 22.6415 3.91684 22.6899 3.68057 23.3128C3.54104 23.6812 3.49452 24.0354 3.63592 24.2186C4.82659 25.1786 6.75584 26.7462 8.70556 27.6254C10.0079 28.1343 10.6999 27.0168 10.7632 26.6028C11.0078 25.0172 11.2897 19.9222 11.2897 19.9222L15.6431 19.7807C15.4989 20.622 16.0849 23.9091 16.0849 23.9091C16.0849 23.9091 17.1565 24.3838 18.0439 23.8977C18.0439 23.8977 18.6374 20.1149 18.6951 18.8531C18.7537 17.4459 18.8244 16.6892 17.5379 16.3939Z" fill="url(#paint7_linear_23_559)"/>
<path opacity="0.15" d="M15.6432 19.7808C15.6432 19.5538 15.7911 18.761 16.2943 18.3385C16.2943 18.3385 15.6041 18.4648 15.2878 19.7922L15.6432 19.7808Z" fill="black"/>
<path opacity="0.15" d="M7.45176 23.8664C7.45176 23.8664 7.54478 25.1169 7.7792 25.7264C7.7792 25.7264 7.19224 24.644 7.12805 23.743L7.45176 23.8664Z" fill="black"/>
<path opacity="0.15" d="M13.0301 15.4112L13.0813 14.5462C11.9325 15.1529 9.51208 14.9811 8.39676 14.08L8.22095 14.9972C8.23025 15.0058 8.94651 15.7616 10.8088 15.8594C12.6711 15.9572 13.0301 15.4112 13.0301 15.4112Z" fill="black"/>
<path opacity="0.15" d="M11.2934 19.9222C11.2779 19.4522 11.1691 18.9904 10.9733 18.5647C10.7776 18.139 10.4991 17.7584 10.1548 17.446C10.1548 17.446 11.1557 17.9207 11.4906 19.4237C11.4906 19.4237 12.2347 19.0696 12.6236 18.0081C12.6236 18.0081 12.5045 19.0696 11.9054 19.6735L13.711 19.8434L11.2934 19.9222Z" fill="black"/>
<path d="M10.7129 0.718723C10.3307 0.718099 9.95218 0.79438 9.59891 0.943203C9.24564 1.09203 8.92457 1.31047 8.65407 1.58605C8.38358 1.86162 8.16895 2.18892 8.02247 2.54923C7.87599 2.90954 7.80054 3.29579 7.80042 3.68588C7.80041 4.07606 7.87578 4.46241 8.02221 4.82283C8.16863 5.18325 8.38323 5.51066 8.65374 5.78634C8.92425 6.06201 9.24536 6.28054 9.59869 6.42943C9.95203 6.57831 10.3306 6.65462 10.7129 6.654C11.4832 6.65274 12.2215 6.33944 12.7657 5.78292C13.3099 5.2264 13.6154 4.47217 13.6152 3.68588C13.6152 2.89977 13.3095 2.14578 12.7654 1.58946C12.2212 1.03315 11.4831 0.719981 10.7129 0.718723Z" fill="#263238"/>
<path d="M7.67599 2.52268C7.78112 2.51777 7.88647 2.52381 7.9904 2.54072C8.02562 2.54308 8.05875 2.55864 8.08342 2.5844C8.09774 2.6057 8.10581 2.63074 8.10668 2.65656C8.13068 2.8214 8.11569 2.98972 8.06296 3.14744C8.02203 3.25759 7.89459 3.31361 7.81366 3.39336C7.49925 3.7048 7.47413 4.22037 7.59785 4.64859C7.72157 5.07681 7.96994 5.45851 8.13086 5.87249C8.29179 6.28646 8.37737 6.78495 8.14947 7.20177C8.0611 7.36129 7.90017 7.48662 7.9197 7.67652C7.94203 7.90915 8.14109 8.13133 8.22667 8.34116C8.32061 8.58976 8.35258 8.85828 8.31969 9.1226C8.29614 9.45123 8.17658 9.76511 7.97645 10.0237C7.82347 10.2056 7.62597 10.343 7.40407 10.4217C7.18217 10.5004 6.9438 10.5177 6.71322 10.4718C6.61601 10.4545 6.52401 10.4145 6.44439 10.355C6.30765 10.243 6.25277 10.0597 6.17835 9.89738C5.93929 9.37231 5.43418 8.99062 5.2807 8.43326C5.11419 7.83983 5.39139 7.22266 5.73185 6.71848C5.89092 6.48301 6.06859 6.25228 6.14672 5.97693C6.25184 5.60568 6.15975 5.21069 6.13556 4.82425C6.11249 4.44677 6.155 4.06811 6.26114 3.70575C6.33742 3.44369 6.45555 3.14175 6.65555 2.95375C6.93622 2.69328 7.29708 2.54085 7.67599 2.52268Z" fill="#263238"/>
<path d="M12.5306 2.07642C12.8487 2.27106 13.2403 3.09237 13.1947 4.81095C13.1557 6.26747 12.6915 6.62543 12.459 6.72893C12.2264 6.83242 11.778 6.76596 11.3427 6.69V7.56448C11.3427 7.56448 11.9418 8.2804 11.9008 8.68203C11.8599 9.08366 11.0301 9.17387 10.4683 8.77698C9.90645 8.38009 9.43484 7.61765 9.43484 7.61765L9.45344 5.60663C9.45344 5.60663 9.19391 5.86299 8.7595 5.4737C8.40323 5.15182 8.28417 4.61156 8.56509 4.32671C8.84601 4.04186 9.36228 4.11877 9.55948 4.53275C9.55948 4.53275 10.2534 4.56124 11.1808 4.04661C11.5416 3.84952 11.8518 3.56844 12.0863 3.22614C12.3209 2.88384 12.473 2.48996 12.5306 2.07642Z" fill="#FFEDE5"/>
<path d="M11.6023 4.43892C11.6025 4.47492 11.5923 4.51017 11.5729 4.54026C11.5536 4.57036 11.526 4.59398 11.4936 4.60817C11.4612 4.62236 11.4254 4.62649 11.3907 4.62005C11.356 4.61361 11.3239 4.59688 11.2985 4.57195C11.273 4.54702 11.2554 4.515 11.2476 4.47987C11.2399 4.44475 11.2425 4.40809 11.2551 4.37445C11.2676 4.34082 11.2896 4.31171 11.3183 4.29075C11.347 4.2698 11.3811 4.25793 11.4163 4.25662C11.4644 4.25658 11.5106 4.27554 11.5453 4.30953C11.58 4.34352 11.6004 4.38989 11.6023 4.43892Z" fill="#263238"/>
<g style="mix-blend-mode:multiply" opacity="0.5">
<g style="mix-blend-mode:multiply" opacity="0.5">
<path d="M11.6433 5.67401L12.0591 5.81074C12.0515 5.83923 12.0384 5.86587 12.0205 5.88906C12.0026 5.91225 11.9803 5.93152 11.9549 5.9457C11.9296 5.95989 11.9017 5.9687 11.8729 5.97161C11.8441 5.97453 11.8151 5.97148 11.7875 5.96266C11.7314 5.94312 11.685 5.90205 11.658 5.84817C11.6311 5.79428 11.6258 5.73182 11.6433 5.67401Z" fill="#F28F8F"/>
</g>
</g>
<path d="M13.0767 3.88232L12.7148 3.62406C12.73 3.59905 12.75 3.57747 12.7736 3.56065C12.7973 3.54382 12.824 3.53212 12.8523 3.52625C12.8805 3.52038 12.9096 3.52047 12.9378 3.52651C12.966 3.53256 12.9927 3.54443 13.0162 3.56139C13.0643 3.59709 13.0973 3.65009 13.1085 3.70968C13.1197 3.76926 13.1084 3.83097 13.0767 3.88232Z" fill="#263238"/>
<path d="M12.9911 4.31166C12.9915 4.3477 12.9814 4.38304 12.9622 4.41326C12.9429 4.44348 12.9154 4.46724 12.883 4.48157C12.8506 4.49591 12.8148 4.50017 12.7801 4.49384C12.7453 4.48751 12.7132 4.47086 12.6876 4.44597C12.6621 4.42108 12.6443 4.38906 12.6365 4.35391C12.6287 4.31877 12.6312 4.28205 12.6438 4.24837C12.6563 4.21468 12.6783 4.18551 12.707 4.16451C12.7357 4.14352 12.7698 4.13162 12.8051 4.13031C12.853 4.13026 12.8991 4.14909 12.9338 4.18288C12.9684 4.21666 12.989 4.26279 12.9911 4.31166Z" fill="#263238"/>
<g style="mix-blend-mode:multiply" opacity="0.5">
<g style="mix-blend-mode:multiply" opacity="0.5">
<path d="M12.1447 4.2034L12.1688 5.30671L12.7381 5.12915L12.1447 4.2034Z" fill="#F28F8F"/>
</g>
</g>
<g style="mix-blend-mode:multiply" opacity="0.5">
<g style="mix-blend-mode:multiply" opacity="0.5">
<path d="M11.3438 6.69004C10.8842 6.62737 9.94101 6.34633 9.7959 5.96463C9.85435 6.15751 9.96927 6.3275 10.1252 6.45172C10.4061 6.70049 11.3419 6.98533 11.3419 6.98533L11.3438 6.69004Z" fill="#F28F8F"/>
</g>
</g>
<path d="M8.21914 7.57404C7.3187 7.63955 6.94755 7.75634 6.44616 8.89193C5.99501 9.91263 4.91597 12.5541 4.64621 13.1428C4.37645 13.7315 4.32528 13.9679 4.55319 14.5841C4.73923 15.0864 6.25919 17.9719 6.4257 18.3925C6.59221 18.8132 6.66569 19.2385 6.94941 19.7285C7.23312 20.2184 7.68148 20.697 8.03589 20.8099C8.56146 20.978 9.24517 20.7444 9.2647 20.4207C9.28424 20.0969 8.49356 19.5566 8.27868 18.8379C8.42167 18.9338 8.57227 19.0173 8.7289 19.0876C8.94192 19.1768 9.18005 19.1569 9.25075 19.0334C9.32144 18.91 9.10843 18.835 8.91866 18.6423C8.80518 18.5274 8.60425 18.2691 8.34751 18.0412C8.17356 17.8874 7.88892 17.8418 7.76055 17.6728C7.69172 17.5826 7.37916 16.8012 7.14382 16.1052C6.8536 15.2421 6.47128 14.0932 6.47128 14.0932L8.03589 10.77C8.03589 10.77 9.26284 9.52049 8.21914 7.57404Z" fill="#FFEDE5"/>
<path d="M6.42292 18.3926C6.42292 18.3926 6.78292 17.6492 7.75777 17.6729L7.50011 17.088C7.50011 17.088 6.5485 17.1564 6.14758 17.8144L6.42292 18.3926Z" fill="#37474F"/>
<path d="M6.31772 17.7611L6.52702 18.064C6.54217 18.086 6.56151 18.1047 6.58389 18.1189C6.60627 18.1332 6.63122 18.1426 6.65727 18.1468C6.68331 18.151 6.70991 18.1497 6.73548 18.1432C6.76105 18.1366 6.78506 18.1249 6.80608 18.1086L7.17817 17.8238C7.22142 17.79 7.25041 17.7406 7.25922 17.6857C7.26804 17.6309 7.25602 17.5746 7.22561 17.5285L7.0312 17.2361C7.01657 17.2135 6.99759 17.1942 6.97543 17.1793C6.95326 17.1645 6.92836 17.1544 6.90225 17.1497C6.87615 17.145 6.84937 17.1458 6.82356 17.152C6.79775 17.1582 6.77345 17.1696 6.75213 17.1857L6.35772 17.4706C6.31478 17.5038 6.28646 17.553 6.27896 17.6074C6.27146 17.6619 6.2854 17.7171 6.31772 17.7611Z" fill="#263238"/>
<path d="M6.248 17.7536L6.45916 18.0565C6.47439 18.0784 6.49377 18.097 6.51615 18.1111C6.53853 18.1253 6.56346 18.1347 6.58947 18.1389C6.61548 18.143 6.64204 18.1418 6.66759 18.1354C6.69314 18.1289 6.71715 18.1172 6.73822 18.1011L7.11031 17.8163C7.15352 17.7825 7.18255 17.7332 7.19153 17.6784C7.20051 17.6236 7.18877 17.5673 7.15868 17.521L6.96427 17.2285C6.94955 17.2061 6.93053 17.1869 6.90836 17.1721C6.88619 17.1573 6.86132 17.1473 6.83525 17.1426C6.80918 17.1379 6.78245 17.1386 6.75666 17.1448C6.73087 17.1509 6.70657 17.1623 6.6852 17.1782L6.29079 17.4678C6.24853 17.5003 6.22041 17.5484 6.21241 17.6018C6.20442 17.6552 6.21719 17.7097 6.248 17.7536Z" fill="#455A64"/>
<path d="M7.12047 17.6538C7.11577 17.6914 7.09671 17.7255 7.06745 17.7488L6.69536 18.0336C6.68243 18.0441 6.66743 18.0517 6.65138 18.0558C6.63533 18.0599 6.61861 18.0604 6.60234 18.0573C6.58639 18.0548 6.5711 18.0491 6.55736 18.0404C6.54362 18.0318 6.53171 18.0204 6.52234 18.007L6.31026 17.7032C6.29236 17.678 6.28439 17.6468 6.28793 17.6158C6.28919 17.5971 6.29452 17.5788 6.30353 17.5624C6.31254 17.546 6.325 17.5318 6.34002 17.5209L6.73443 17.236C6.74762 17.226 6.7627 17.2189 6.7787 17.2152C6.79471 17.2114 6.81131 17.2111 6.82745 17.2142C6.84338 17.2171 6.85859 17.2232 6.87217 17.2321C6.88575 17.2411 6.89743 17.2528 6.90652 17.2664L7.10093 17.5589C7.11918 17.5868 7.12709 17.6205 7.12326 17.6538H7.12047Z" fill="url(#paint8_linear_23_559)"/>
</g>
<defs>
<linearGradient id="paint0_linear_23_559" x1="3.51163" y1="26.5777" x2="-0.769449" y2="26.3791" gradientUnits="userSpaceOnUse">
<stop stop-color="#92A3FD"/>
<stop offset="1" stop-color="#9DCEFF"/>
</linearGradient>
<linearGradient id="paint1_linear_23_559" x1="2.60321" y1="25.0057" x2="1.01233" y2="24.7076" gradientUnits="userSpaceOnUse">
<stop stop-color="#92A3FD"/>
<stop offset="1" stop-color="#9DCEFF"/>
</linearGradient>
<linearGradient id="paint2_linear_23_559" x1="2.7728" y1="24.3885" x2="1.18655" y2="24.118" gradientUnits="userSpaceOnUse">
<stop stop-color="#92A3FD"/>
<stop offset="1" stop-color="#9DCEFF"/>
</linearGradient>
<linearGradient id="paint3_linear_23_559" x1="21.38" y1="28.7065" x2="13.7739" y2="27.7561" gradientUnits="userSpaceOnUse">
<stop stop-color="#92A3FD"/>
<stop offset="1" stop-color="#9DCEFF"/>
</linearGradient>
<linearGradient id="paint4_linear_23_559" x1="18.8857" y1="26.666" x2="17.4075" y2="26.4444" gradientUnits="userSpaceOnUse">
<stop stop-color="#92A3FD"/>
<stop offset="1" stop-color="#9DCEFF"/>
</linearGradient>
<linearGradient id="paint5_linear_23_559" x1="19.4895" y1="27.0477" x2="17.8544" y2="26.7809" gradientUnits="userSpaceOnUse">
<stop stop-color="#92A3FD"/>
<stop offset="1" stop-color="#9DCEFF"/>
</linearGradient>
<linearGradient id="paint6_linear_23_559" x1="20.1565" y1="27.3807" x2="18.5428" y2="27.1223" gradientUnits="userSpaceOnUse">
<stop stop-color="#92A3FD"/>
<stop offset="1" stop-color="#9DCEFF"/>
</linearGradient>
<linearGradient id="paint7_linear_23_559" x1="18.721" y1="27.7557" x2="-1.47087" y2="26.0226" gradientUnits="userSpaceOnUse">
<stop stop-color="#92A3FD"/>
<stop offset="1" stop-color="#9DCEFF"/>
</linearGradient>
<linearGradient id="paint8_linear_23_559" x1="7.1242" y1="18.0593" x2="6.00837" y2="17.974" gradientUnits="userSpaceOnUse">
<stop stop-color="#92A3FD"/>
<stop offset="1" stop-color="#9DCEFF"/>
</linearGradient>
<clipPath id="clip0_23_559">
<rect width="22.9688" height="28.3176" fill="white" transform="translate(0.015625 0.71875)"/>
</clipPath>
</defs>
</svg>
