<svg width="232" height="165" viewBox="0 0 232 165" fill="none" xmlns="http://www.w3.org/2000/svg">
<path fill-rule="evenodd" clip-rule="evenodd" d="M6.0381 50.9766C0.0343069 66.0135 -1.53656 82.5592 1.52437 98.5224C4.58493 114.485 12.1398 129.148 23.2332 140.656C34.3265 152.165 48.4607 160.002 63.8474 163.178C79.2352 166.353 95.1842 164.723 109.679 158.495C124.173 152.267 136.561 141.719 145.277 128.186C145.51 127.826 145.739 127.463 145.966 127.098C146.126 126.842 146.285 126.583 146.442 126.324V164.759H152.544C168.233 164.759 183.569 159.932 196.613 150.89C209.658 141.849 219.825 128.996 225.828 113.959C231.832 98.9227 233.403 82.377 230.342 66.4137C227.281 50.4511 219.727 35.7882 208.634 24.2798C197.54 12.771 183.406 4.93379 168.019 1.75871C152.631 -1.41675 136.683 0.212901 122.188 6.44134C107.694 12.6698 95.3053 23.2173 86.5894 36.7498C86.193 37.3657 85.8046 37.9869 85.4243 38.6124V0.177356H79.3227C63.6341 0.177356 48.2979 5.00372 35.2535 14.046C22.209 23.0879 12.0419 35.94 6.0381 50.9766ZM73.2212 82.4681V13.1257C62.0997 14.1789 51.3726 18.0989 42.0334 24.5722C30.9956 32.2233 22.393 43.0984 17.3128 55.8215C12.2326 68.5451 10.9034 82.5451 13.4932 96.0525C16.0831 109.559 22.4757 121.966 31.8622 131.704C41.2491 141.442 53.2086 148.074 66.2287 150.761C79.2485 153.447 92.7438 152.068 105.008 146.798C116.78 141.74 126.91 133.314 134.227 122.52C128.682 125.251 122.48 126.779 115.933 126.779C92.3444 126.779 73.2212 106.94 73.2212 82.4681ZM158.645 151.81V82.4681C158.645 57.9963 139.522 38.1577 115.933 38.1577C109.387 38.1577 103.185 39.6853 97.6396 42.4161C104.956 31.6217 115.086 23.196 126.858 18.1379C139.123 12.8676 152.618 11.4887 165.638 14.1754C178.658 16.8621 190.618 23.4939 200.005 33.2316C209.391 42.9697 215.784 55.3768 218.373 68.8836C220.963 82.3911 219.634 96.3911 214.554 109.114C209.474 121.838 200.871 132.713 189.833 140.364C180.494 146.837 169.767 150.757 158.645 151.81ZM115.323 114.112C98.9578 113.779 85.7518 100.078 85.4307 83.1011H96.973C106.078 85.2542 113.247 92.6898 115.323 102.136V114.112ZM116.543 114.112C132.908 113.779 146.115 100.078 146.436 83.1011H134.894C125.787 85.2542 118.619 92.6909 116.543 102.139V114.112ZM146.436 81.835C146.115 64.8579 132.908 51.157 116.543 50.824V62.7976C118.619 72.2446 125.787 79.6814 134.892 81.835H146.436ZM115.323 50.824C98.9584 51.157 85.7518 64.8579 85.4307 81.835H96.9748C106.08 79.6814 113.247 72.2458 115.323 62.8V50.824Z" fill="#FDBF62"/>
</svg>
